<?xml version="1.0" standalone="no"?>
<!DOCTYPE svg PUBLIC "-//W3C//DTD SVG 20010904//EN"
 "http://www.w3.org/TR/2001/REC-SVG-20010904/DTD/svg10.dtd">
<svg version="1.0" xmlns="http://www.w3.org/2000/svg"
 width="512.000000pt" height="512.000000pt" viewBox="0 0 512.000000 512.000000"
 preserveAspectRatio="xMidYMid meet">

<g transform="translate(0.000000,512.000000) scale(0.100000,-0.100000)"
fill="#000000" stroke="none">
<path d="M2560 4949 c-243 -28 -519 -122 -725 -249 -210 -129 -422 -329 -555
-524 l-33 -49 26 -21 c15 -12 45 -31 66 -44 l40 -22 72 96 c121 164 286 315
464 424 621 382 1432 298 1961 -203 307 -290 475 -634 514 -1052 11 -113 23
-155 192 -700 100 -319 183 -586 186 -592 3 -10 -56 -13 -277 -13 l-282 0 -24
-25 c-25 -24 -25 -27 -25 -200 l0 -175 -136 0 c-78 0 -154 5 -178 12 -78 23
-166 135 -166 212 0 13 -13 16 -81 16 l-82 0 7 -52 c9 -71 55 -167 107 -222
26 -29 70 -60 117 -84 l76 -37 168 -4 168 -3 0 -239 0 -239 -535 0 -536 0 -24
-25 -25 -24 0 -296 0 -295 -558 0 -559 0 -6 173 c-23 622 -193 1189 -533 1772
-94 163 -148 278 -185 395 -13 41 -24 76 -25 78 -2 3 -145 -36 -151 -41 -2 -2
10 -46 27 -98 36 -109 119 -288 186 -398 339 -556 524 -1207 524 -1843 0 -145
1 -150 25 -173 l24 -25 671 0 671 0 24 25 25 24 0 296 0 295 535 0 536 0 24
25 25 24 0 496 0 495 295 0 296 0 24 25 c14 13 25 34 25 46 0 11 -90 309 -200
661 -185 590 -201 647 -210 751 -52 551 -340 1033 -801 1339 -341 228 -779
333 -1189 287z"/>
<path d="M2642 4467 c-44 -14 -116 -78 -137 -124 -10 -21 -21 -62 -24 -92 l-6
-55 -156 -87 -156 -87 -58 29 c-63 32 -113 36 -177 17 -48 -14 -121 -76 -138
-118 l-12 -30 -351 0 -351 0 -161 160 -161 160 -66 0 c-64 0 -66 1 -78 30 -28
68 -129 130 -210 130 -124 0 -240 -116 -240 -240 0 -124 116 -240 240 -240 81
0 182 62 210 130 10 24 18 30 43 30 27 0 54 -23 192 -160 l161 -160 386 0 386
0 12 -30 c14 -34 77 -95 109 -105 18 -5 21 -14 21 -56 l0 -49 -649 0 -649 0
-12 30 c-28 68 -129 130 -210 130 -124 0 -240 -116 -240 -240 0 -124 116 -240
240 -240 81 0 182 62 210 130 l12 30 649 0 649 0 0 -49 c0 -45 -2 -50 -30 -61
-34 -14 -95 -77 -105 -109 -6 -21 -8 -21 -392 -21 l-387 0 -161 -160 c-138
-137 -165 -160 -192 -160 -25 0 -33 6 -43 30 -28 68 -129 130 -210 130 -124 0
-240 -116 -240 -240 0 -124 116 -240 240 -240 81 0 182 62 210 130 12 29 14
30 78 30 l66 0 161 160 161 160 351 0 351 0 12 -30 c17 -42 90 -104 138 -118
64 -19 114 -15 177 17 l58 29 156 -87 156 -87 6 -55 c8 -73 33 -122 85 -168
65 -57 142 -74 226 -49 50 15 120 76 143 125 10 21 21 62 24 92 l6 55 156 87
156 87 58 -29 c100 -50 189 -35 270 46 71 70 91 146 63 237 -14 48 -76 121
-118 138 l-30 12 0 178 0 178 30 12 c42 17 104 90 118 138 28 91 8 167 -63
237 -86 87 -201 100 -297 33 l-27 -18 -158 88 -158 88 -6 54 c-9 74 -21 102
-69 154 -62 68 -158 92 -248 63z m133 -172 c16 -15 25 -36 25 -55 0 -19 -9
-40 -25 -55 -15 -16 -36 -25 -55 -25 -19 0 -40 9 -55 25 -16 15 -25 36 -25 55
0 19 9 40 25 55 15 16 36 25 55 25 19 0 40 -9 55 -25z m-2320 -80 c50 -49 15
-135 -55 -135 -41 0 -80 39 -80 80 0 41 39 80 80 80 19 0 40 -9 55 -25z m2148
-180 l37 -19 0 -175 0 -176 -41 -22 -40 -22 -157 87 -157 88 0 44 0 44 155 87
c85 48 157 87 160 86 3 -2 22 -11 43 -22z m437 -64 l155 -87 0 -44 0 -44 -157
-88 -157 -87 -40 22 -41 22 0 175 0 175 38 21 c20 12 39 22 42 22 3 0 75 -39
160 -87z m-985 -76 c50 -49 15 -135 -55 -135 -41 0 -80 39 -80 80 0 41 39 80
80 80 19 0 40 -9 55 -25z m1440 0 c16 -15 25 -36 25 -55 0 -19 -9 -40 -25 -55
-15 -16 -36 -25 -55 -25 -19 0 -40 9 -55 25 -16 15 -25 36 -25 55 0 19 9 40
25 55 15 16 36 25 55 25 19 0 40 -9 55 -25z m-1175 -324 l155 -87 0 -44 0 -44
-157 -88 -157 -87 -40 22 -41 22 0 175 0 175 38 21 c20 12 39 22 42 22 3 0 75
-39 160 -87z m1003 64 l37 -19 0 -175 0 -176 -41 -22 -40 -22 -157 87 -157 88
0 44 0 44 155 87 c85 48 157 87 160 86 3 -2 22 -11 43 -22z m-2868 -140 c50
-49 15 -135 -55 -135 -41 0 -80 39 -80 80 0 41 39 80 80 80 19 0 40 -9 55 -25z
m2320 0 c16 -15 25 -36 25 -55 0 -19 -9 -40 -25 -55 -15 -16 -36 -25 -55 -25
-19 0 -40 9 -55 25 -16 15 -25 36 -25 55 0 19 9 40 25 55 15 16 36 25 55 25
19 0 40 -9 55 -25z m-172 -260 l37 -19 0 -175 0 -176 -41 -22 -40 -22 -157 87
-157 88 0 44 0 44 155 87 c85 48 157 87 160 86 3 -2 22 -11 43 -22z m437 -64
l155 -87 0 -44 0 -44 -157 -88 -157 -87 -40 22 -41 22 0 175 0 175 38 21 c20
12 39 22 42 22 3 0 75 -39 160 -87z m-985 -76 c50 -49 15 -135 -55 -135 -41 0
-80 39 -80 80 0 41 39 80 80 80 19 0 40 -9 55 -25z m1440 0 c16 -15 25 -36 25
-55 0 -19 -9 -40 -25 -55 -15 -16 -36 -25 -55 -25 -19 0 -40 9 -55 25 -16 15
-25 36 -25 55 0 19 9 40 25 55 15 16 36 25 55 25 19 0 40 -9 55 -25z m-3040
-320 c50 -49 15 -135 -55 -135 -41 0 -80 39 -80 80 0 41 39 80 80 80 19 0 40
-9 55 -25z m2320 -80 c16 -15 25 -36 25 -55 0 -19 -9 -40 -25 -55 -15 -16 -36
-25 -55 -25 -19 0 -40 9 -55 25 -16 15 -25 36 -25 55 0 19 9 40 25 55 15 16
36 25 55 25 19 0 40 -9 55 -25z"/>
</g>
</svg>
